<svg width="27" height="32" viewBox="0 0 27 32" fill="none" xmlns="http://www.w3.org/2000/svg">
<path d="M0 10.0982C0 8.98683 0.439955 7.93293 1.21428 7.20479L7.884 0.938922C8.51753 0.344911 9.34465 0 10.1894 0H13.1987H16.2079C17.0527 0 17.8622 0.325749 18.5133 0.938922L25.183 7.20479C25.9574 7.93293 26.3973 8.98683 26.3973 10.0982V28.1677C26.3973 30.2754 24.8135 32 22.8777 32H3.51964C1.58384 32 0 30.2754 0 28.1677V10.0982Z" fill="#1B2B71"/>
<path d="M7.56717 14.5629H9.67895C10.1717 14.5629 10.5589 14.9844 10.5589 15.521V17.8204C10.5589 18.3569 10.1717 18.7784 9.67895 18.7784H7.56717C7.07442 18.7784 6.68726 18.3569 6.68726 17.8204V15.521C6.68726 14.9844 7.07442 14.5629 7.56717 14.5629Z" fill="#FFD23F"/>
<path d="M7.56717 7.28143H9.67895C10.1717 7.28143 10.5589 7.70299 10.5589 8.23952V10.5389C10.5589 11.0754 10.1717 11.497 9.67895 11.497H7.56717C7.07442 11.497 6.68726 11.0754 6.68726 10.5389V8.23952C6.68726 7.70299 7.07442 7.28143 7.56717 7.28143Z" fill="#3253E3"/>
<path d="M16.7184 14.5629H18.8302C19.3229 14.5629 19.7101 14.9844 19.7101 15.521V17.8204C19.7101 18.3569 19.3229 18.7784 18.8302 18.7784H16.7184C16.2257 18.7784 15.8385 18.3569 15.8385 17.8204V15.521C15.8385 14.9844 16.2257 14.5629 16.7184 14.5629Z" fill="#FFD23F"/>
<path d="M16.7184 7.28143H18.8302C19.3229 7.28143 19.7101 7.70299 19.7101 8.23952V10.5389C19.7101 11.0754 19.3229 11.497 18.8302 11.497H16.7184C16.2257 11.497 15.8385 11.0754 15.8385 10.5389V8.23952C15.8385 7.70299 16.2257 7.28143 16.7184 7.28143Z" fill="#3253E3"/>
<path d="M13.2866 27.4012C8.55265 27.4012 6.12409 24.527 6.0361 24.3929C5.71933 23.9905 5.73693 23.3964 6.10649 23.0324C6.47606 22.6875 7.0216 22.7066 7.33837 23.109C7.42636 23.224 9.37976 25.4659 13.2866 25.4659C17.2462 25.4659 19.2172 23.1282 19.2348 23.109C19.5515 22.7066 20.1147 22.6875 20.4842 23.0324C20.8538 23.3773 20.8714 23.9905 20.5546 24.3929C20.449 24.527 18.0205 27.4012 13.2866 27.4012Z" fill="#FFD23F"/>
</svg>
